<?xml version="1.0" encoding="utf-8"?>
<!-- Generator: Adobe Illustrator 16.0.0, SVG Export Plug-In . SVG Version: 6.00 Build 0)  -->
<!DOCTYPE svg PUBLIC "-//W3C//DTD SVG 1.1//EN" "http://www.w3.org/Graphics/SVG/1.1/DTD/svg11.dtd">
<svg version="1.1" xmlns="http://www.w3.org/2000/svg" xmlns:xlink="http://www.w3.org/1999/xlink" x="0px" y="0px"
	 width="358.333px" height="99.083px" viewBox="0 0 358.333 99.083" enable-background="new 0 0 358.333 99.083"
	 xml:space="preserve">
<g id="Layer_1">
	<rect x="59.467" y="0.06" fill="#D9272E" width="19.703" height="19.785"/>
	<rect x="0.094" y="59.296" fill="#D9272E" width="19.809" height="39.787"/>
	<rect x="19.67" y="39.656" fill="#D9272E" width="39.814" height="19.811"/>
	<polyline fill="#D9272E" points="9.971,89.179 19.877,99.083 19.877,79.277 9.971,89.175 	"/>
	<polyline fill="#D9272E" points="9.977,89.175 19.877,79.277 0.072,79.277 9.971,89.175 	"/>
	<polyline fill="#D9272E" points="9.844,49.566 19.742,59.466 19.742,39.656 9.844,49.566 	"/>
	<polyline fill="#D9272E" points="9.9,49.498 19.811,59.402 0,59.402 9.9,49.498 	"/>
	<polyline fill="#D9272E" points="29.777,89.179 19.871,99.083 19.871,79.277 29.777,89.175 	"/>
	<polyline fill="#D9272E" points="29.777,89.175 39.68,79.277 19.871,79.277 29.777,89.175 	"/>
	<polyline fill="#D9272E" points="69.391,49.566 59.484,59.466 59.484,39.656 69.391,49.566 	"/>
	<polyline fill="#D9272E" points="69.393,49.566 79.301,39.656 59.484,39.656 69.391,49.566 	"/>
	<polyline fill="#D9272E" points="49.58,9.945 59.484,19.854 59.484,0.048 49.58,9.945 	"/>
	<polyline fill="#D9272E" points="49.674,9.945 59.484,19.854 39.857,19.854 49.674,9.945 	"/>
	<line opacity="0.77" fill="#BC2643" x1="59.607" y1="59.147" x2="59.607" y2="60.152"/>
	<polyline fill="#7B303E" points="0.094,59.525 19.893,62.877 19.902,59.525 	"/>
	<rect x="39.842" y="19.854" fill="#D8262D" width="19.812" height="79.271"/>
	<polyline fill="#7B303E" points="39.857,19.894 59.648,23.42 59.658,19.894 	"/>
	<g>
		<g>
			<path d="M114.582,58.247c-0.352-1.583-2.061-2.262-3.594-2.237c-1.181,0.025-2.488,0.427-3.192,1.332
				c-0.352,0.452-0.478,1.03-0.427,1.633c0.125,1.81,2.111,2.036,3.996,2.212c2.413,0.301,5.403,0.93,6.082,3.744
				c0.076,0.377,0.125,0.804,0.125,1.156c0,3.393-3.367,5.353-6.534,5.353c-2.714,0-6.006-1.608-6.333-4.75l-0.025-0.478l2.563-0.05
				l0.025,0.377v-0.1c0.176,1.633,2.162,2.488,3.795,2.488c1.885,0,3.946-1.056,3.946-2.865c0-0.176-0.025-0.377-0.076-0.603
				c-0.301-1.332-2.111-1.558-3.87-1.734c-2.739-0.276-5.956-0.88-6.232-4.549v0.025c-0.101-1.182,0.201-2.363,0.955-3.343
				c1.181-1.533,3.292-2.337,5.328-2.337c2.714,0,5.529,1.407,5.981,4.624L114.582,58.247z"/>
			<path d="M122.575,68.751h8.167v2.538h-10.731V53.723h10.706v2.539h-8.142v4.951h7.966v2.563h-7.966V68.751z"/>
			<path d="M133.181,71.29V53.698h1.96l8.57,12.39v-12.39h2.513V71.29h-2.01L135.719,59V71.29H133.181z"/>
			<path d="M151.628,68.751h8.167v2.538h-10.731V53.723h10.706v2.539h-8.142v4.951h7.966v2.563h-7.966V68.751z"/>
			<path d="M164.42,56.236c1.533-1.583,3.694-2.614,6.082-2.614c4.021,0,7.188,2.513,8.193,6.484h-2.513
				c-0.93-2.639-3.091-3.971-5.68-3.971c-1.684,0-3.217,0.729-4.323,1.885c-1.105,1.156-1.809,2.714-1.809,4.524
				c0,1.759,0.704,3.317,1.809,4.473c1.106,1.156,2.639,1.885,4.323,1.885c2.664,0,4.926-1.533,5.831-4.197h2.488
				c-1.005,3.996-4.222,6.71-8.318,6.71c-2.388,0-4.549-1.005-6.082-2.613c-1.508-1.608-2.513-3.82-2.513-6.258
				C161.907,60.056,162.912,57.844,164.42,56.236z"/>
			<path d="M189.904,66.841h-7.137l-1.709,4.448h-2.739l7.062-17.818h1.859l7.062,17.818h-2.714L189.904,66.841z M183.696,64.454
				h5.278l-2.639-6.936L183.696,64.454z"/>
		</g>
	</g>
	<g>
		<path d="M107.262,2.514c1.533-1.583,3.694-2.614,6.082-2.614c4.021,0,7.188,2.513,8.193,6.484h-2.513
			c-0.93-2.639-3.091-3.971-5.68-3.971c-1.684,0-3.217,0.729-4.323,1.885c-1.105,1.156-1.809,2.714-1.809,4.524
			c0,1.759,0.704,3.317,1.809,4.473c1.106,1.156,2.639,1.885,4.323,1.885c2.664,0,4.926-1.533,5.831-4.197h2.488
			c-1.005,3.996-4.222,6.71-8.318,6.71c-2.388,0-4.549-1.005-6.082-2.613c-1.508-1.608-2.513-3.82-2.513-6.258
			C104.749,6.333,105.753,4.122,107.262,2.514z"/>
		<path d="M127.066,8.646h2.965c2.136,0,3.192-1.533,3.192-3.066c0-1.508-1.056-3.041-3.192-3.041h-3.895v15.028h-2.513V-0.024
			h6.408c3.82,0,5.73,2.814,5.73,5.604c0,2.488-1.533,4.851-4.549,5.378l5.554,6.609h-3.292l-6.409-7.715V8.646z"/>
		<path d="M138.603,12.29V0h2.563v12.314c0,1.935,2.086,2.89,3.946,2.89c1.834,0,3.92-0.98,3.92-2.915V0h2.563v12.314
			c0,3.569-3.468,5.428-6.484,5.428C142.02,17.743,138.603,15.884,138.603,12.29z"/>
		<path d="M157.1,17.567h-2.538V-0.024h2.061l5.805,8.544l5.806-8.544h2.01v17.592h-2.513V5.178l-4.599,6.835h-1.433L157.1,5.178
			V17.567z"/>
		<path d="M194.094,17.542h-2.613l-2.011-2.237c-1.307,1.533-2.764,2.463-4.951,2.463c-3.066,0-5.504-2.036-5.504-5.252
			c0-2.488,1.533-3.72,3.292-4.825c-0.88-1.056-1.608-2.211-1.608-3.644c0-2.689,2.262-4.247,4.674-4.247
			c2.211,0,4.272,1.633,4.272,4.021c0,2.287-1.533,3.468-3.191,4.373l2.865,2.991l1.156-1.985l2.187,1.131l-1.659,2.815l3.091,3.417
			V17.542z M183.991,9.4c-1.156,0.704-2.438,1.734-2.438,3.066c0,1.709,1.458,2.84,3.167,2.84c1.307,0,2.337-0.804,3.167-1.834
			L183.991,9.4z M183.312,3.997c0,0.829,0.704,1.885,1.382,2.639c1.081-0.603,2.438-1.483,2.438-2.764
			c0-0.98-0.804-1.709-1.835-1.709C184.217,2.162,183.312,2.966,183.312,3.997z"/>
		<path d="M204.851,17.567h-2.538V-0.024h10.479v2.463h-7.941v5.252h7.037v2.362h-7.037V17.567z"/>
		<path d="M217.342,2.338c1.633-1.659,3.92-2.689,6.408-2.689c2.513,0,4.775,1.03,6.434,2.689c1.608,1.659,2.639,3.92,2.639,6.434
			s-1.031,4.775-2.639,6.434c-1.659,1.684-3.92,2.689-6.434,2.689c-2.488,0-4.775-1.005-6.408-2.689
			c-1.608-1.659-2.639-3.92-2.639-6.434S215.734,3.997,217.342,2.338z M228.35,4.172c-1.181-1.206-2.84-1.935-4.599-1.935
			c-1.759,0-3.367,0.729-4.548,1.935c-1.181,1.156-1.91,2.79-1.91,4.599s0.729,3.443,1.91,4.599c1.181,1.206,2.79,1.935,4.548,1.935
			c1.759,0,3.418-0.729,4.599-1.935c1.156-1.156,1.885-2.765,1.885-4.599S229.506,5.329,228.35,4.172z"/>
		<path d="M238.328,8.646h2.965c2.136,0,3.192-1.533,3.192-3.066c0-1.508-1.056-3.041-3.192-3.041h-3.895v15.028h-2.513V-0.024
			h6.408c3.82,0,5.73,2.814,5.73,5.604c0,2.488-1.533,4.851-4.549,5.378l5.554,6.609h-3.292l-6.408-7.715V8.646z"/>
		<path d="M259.514,4.524c-0.352-1.583-2.061-2.262-3.594-2.237c-1.181,0.025-2.488,0.427-3.192,1.332
			c-0.352,0.452-0.478,1.03-0.427,1.633c0.126,1.81,2.111,2.036,3.996,2.212c2.413,0.301,5.403,0.93,6.082,3.744
			c0.076,0.377,0.125,0.804,0.125,1.156c0,3.393-3.367,5.353-6.534,5.353c-2.714,0-6.006-1.608-6.333-4.75l-0.025-0.478l2.563-0.05
			l0.025,0.377v-0.1c0.176,1.633,2.162,2.488,3.795,2.488c1.885,0,3.946-1.056,3.946-2.865c0-0.176-0.025-0.377-0.076-0.603
			c-0.301-1.332-2.111-1.558-3.87-1.734c-2.739-0.276-5.956-0.88-6.232-4.549v0.025c-0.101-1.182,0.201-2.363,0.955-3.343
			c1.181-1.533,3.292-2.337,5.328-2.337c2.714,0,5.529,1.407,5.981,4.624L259.514,4.524z"/>
		<path d="M268.688,17.567V2.388h-5.328v-2.413h13.169v2.413h-5.303v15.179H268.688z"/>
		<path d="M281.179,15.029h8.167v2.538h-10.731V0h10.706v2.539h-8.142V7.49h7.966v2.563h-7.966V15.029z"/>
		<path d="M295.228,8.646h2.965c2.136,0,3.192-1.533,3.192-3.066c0-1.508-1.056-3.041-3.192-3.041h-3.895v15.028h-2.513V-0.024
			h6.408c3.82,0,5.73,2.814,5.73,5.604c0,2.488-1.533,4.851-4.549,5.378l5.554,6.609h-3.292l-6.408-7.715V8.646z"/>
	</g>
	<g>
		<g>
			<path d="M107.147,44.764h-2.538V27.172h10.479v2.463h-7.941v5.252h7.037v2.362h-7.037V44.764z"/>
			<path d="M125.946,40.316h-7.137l-1.709,4.448h-2.739l7.062-17.818h1.859l7.062,17.818h-2.714L125.946,40.316z M119.738,37.928
				h5.278l-2.639-6.936L119.738,37.928z"/>
			<path d="M140.322,29.61h-3.267v12.717h3.267v2.438h-9.072v-2.438h3.267V29.61h-3.267v-2.413h9.072V29.61z"/>
			<path d="M146.128,35.843h2.965c2.136,0,3.192-1.533,3.192-3.066c0-1.508-1.056-3.041-3.192-3.041h-3.895v15.028h-2.513V27.172
				h6.408c3.82,0,5.73,2.814,5.73,5.604c0,2.488-1.533,4.851-4.549,5.378l5.554,6.609h-3.292l-6.408-7.715V35.843z"/>
			<path d="M160.202,44.764h-2.538V27.172h2.061l5.805,8.544l5.806-8.544h2.01v17.592h-2.513v-12.39l-4.599,6.835h-1.433
				l-4.599-6.835V44.764z"/>
			<path d="M177.519,29.535c1.633-1.659,3.92-2.689,6.408-2.689c2.513,0,4.775,1.03,6.434,2.689c1.608,1.659,2.639,3.92,2.639,6.434
				s-1.031,4.775-2.639,6.434c-1.659,1.684-3.92,2.689-6.434,2.689c-2.488,0-4.775-1.005-6.408-2.689
				c-1.608-1.659-2.639-3.92-2.639-6.434S175.91,31.193,177.519,29.535z M188.526,31.369c-1.181-1.206-2.84-1.935-4.599-1.935
				c-1.759,0-3.367,0.729-4.548,1.935c-1.181,1.156-1.91,2.79-1.91,4.599s0.729,3.443,1.91,4.599
				c1.181,1.206,2.79,1.935,4.548,1.935c1.759,0,3.418-0.729,4.599-1.935c1.156-1.156,1.885-2.765,1.885-4.599
				S189.682,32.525,188.526,31.369z"/>
			<path d="M194.559,44.764V27.172h1.96l8.57,12.39v-12.39h2.513v17.592h-2.01l-8.495-12.289v12.289H194.559z"/>
			<path d="M215.192,44.764V29.585h-5.328v-2.413h13.169v2.413h-5.303v15.179H215.192z"/>
			<path d="M241.079,31.721c-0.352-1.583-2.061-2.262-3.594-2.237c-1.181,0.025-2.488,0.427-3.192,1.332
				c-0.352,0.452-0.478,1.03-0.427,1.633c0.125,1.81,2.111,2.036,3.996,2.212c2.413,0.301,5.403,0.93,6.082,3.744
				c0.076,0.377,0.125,0.804,0.125,1.156c0,3.393-3.367,5.353-6.534,5.353c-2.714,0-6.006-1.608-6.333-4.75l-0.025-0.478l2.563-0.05
				l0.025,0.377v-0.1c0.176,1.633,2.162,2.488,3.795,2.488c1.885,0,3.946-1.056,3.946-2.865c0-0.176-0.025-0.377-0.076-0.603
				c-0.301-1.332-2.111-1.558-3.87-1.734c-2.739-0.276-5.956-0.88-6.232-4.549v0.025c-0.101-1.182,0.201-2.363,0.955-3.343
				c1.181-1.533,3.292-2.337,5.328-2.337c2.714,0,5.529,1.407,5.981,4.624L241.079,31.721z"/>
			<path d="M252.916,27.172c3.795,0,5.705,2.94,5.705,5.881c0,2.94-1.91,5.855-5.705,5.855h-3.87v5.855h-2.563V27.172H252.916z
				 M252.916,36.396c2.136,0,3.192-1.659,3.192-3.317c0-1.684-1.056-3.342-3.192-3.342h-3.87v6.66H252.916z"/>
			<path d="M262.668,42.226h8.167v2.538h-10.731V27.197h10.706v2.539h-8.142v4.951h7.966v2.563h-7.966V42.226z"/>
			<path d="M274.958,29.71c1.533-1.583,3.694-2.614,6.082-2.614c4.021,0,7.188,2.513,8.193,6.484h-2.513
				c-0.93-2.639-3.091-3.971-5.68-3.971c-1.684,0-3.217,0.729-4.323,1.885c-1.105,1.156-1.809,2.714-1.809,4.524
				c0,1.759,0.704,3.317,1.809,4.473c1.106,1.156,2.639,1.885,4.323,1.885c2.664,0,4.926-1.533,5.831-4.197h2.488
				c-1.005,3.996-4.222,6.71-8.318,6.71c-2.388,0-4.549-1.005-6.082-2.613c-1.508-1.608-2.513-3.82-2.513-6.258
				C272.445,33.53,273.45,31.319,274.958,29.71z"/>
			<path d="M298.984,29.61h-3.267v12.717h3.267v2.438h-9.072v-2.438h3.267V29.61h-3.267v-2.413h9.072V29.61z"/>
			<path d="M311.475,40.316h-7.137l-1.709,4.448h-2.739l7.062-17.818h1.859l7.062,17.818h-2.714L311.475,40.316z M305.268,37.928
				h5.278l-2.639-6.936L305.268,37.928z"/>
			<path d="M320.222,42.226h8.268v2.538h-10.806V27.172h2.538V42.226z"/>
			<path d="M332.914,44.764V29.585h-5.328v-2.413h13.169v2.413h-5.303v15.179H332.914z"/>
			<path d="M345.254,27.172l4.8,7.74l4.8-7.74h3.016l-6.534,10.429v7.163h-2.563v-7.163l-6.509-10.429H345.254z"/>
		</g>
	</g>
	<g>
		<g>
			<path d="M107.362,83.819c1.533-1.583,3.694-2.614,6.082-2.614c4.021,0,7.188,2.513,8.193,6.484h-2.513
				c-0.93-2.639-3.091-3.971-5.68-3.971c-1.684,0-3.217,0.729-4.323,1.885c-1.105,1.156-1.809,2.714-1.809,4.524
				c0,1.759,0.704,3.317,1.809,4.473c1.106,1.156,2.639,1.885,4.323,1.885c2.664,0,4.926-1.533,5.831-4.197h2.488
				c-1.005,3.996-4.222,6.71-8.318,6.71c-2.388,0-4.549-1.005-6.082-2.613c-1.508-1.608-2.513-3.82-2.513-6.258
				C104.849,87.639,105.854,85.427,107.362,83.819z"/>
			<path d="M126.538,83.643c1.633-1.659,3.92-2.689,6.408-2.689c2.513,0,4.775,1.03,6.434,2.689c1.608,1.659,2.639,3.92,2.639,6.434
				s-1.031,4.775-2.639,6.434c-1.659,1.684-3.92,2.689-6.434,2.689c-2.488,0-4.775-1.005-6.408-2.689
				c-1.608-1.659-2.639-3.92-2.639-6.434S124.929,85.302,126.538,83.643z M137.545,85.478c-1.206-1.206-2.84-1.935-4.599-1.935
				c-1.759,0-3.367,0.729-4.548,1.935c-1.181,1.156-1.91,2.79-1.91,4.599s0.729,3.443,1.91,4.599
				c1.181,1.206,2.79,1.935,4.548,1.935c1.759,0,3.393-0.729,4.599-1.935c1.156-1.156,1.885-2.765,1.885-4.599
				S138.701,86.634,137.545,85.478z"/>
			<path d="M156.294,81.281h2.714l-7.062,17.642h-1.859l-7.062-17.642h2.765l5.227,13.169L156.294,81.281z"/>
			<path d="M163.483,96.334h8.167v2.538h-10.731V81.306h10.706v2.539h-8.142v4.951h7.966v2.563h-7.966V96.334z"/>
			<path d="M177.532,89.951h2.965c2.136,0,3.192-1.533,3.192-3.066c0-1.508-1.056-3.041-3.192-3.041h-3.895v15.028h-2.513V81.281
				h6.408c3.82,0,5.73,2.814,5.73,5.604c0,2.488-1.533,4.851-4.549,5.378l5.554,6.609h-3.292l-6.408-7.715V89.951z"/>
			<path stroke="#414142" stroke-width="0.5174" stroke-miterlimit="10" d="M191.104,81.281l4.775,6.458l4.8-6.458h3.091
				l-6.358,8.645l6.358,8.947h-3.091l-4.8-6.911l-4.775,6.911h-3.116l6.358-8.947l-6.358-8.645H191.104z"/>
			<path d="M215.155,85.729c-0.352-1.583-2.061-2.287-3.594-2.262c-1.181,0.025-2.488,0.427-3.192,1.357
				c-0.352,0.452-0.478,1.03-0.427,1.659c0.126,1.834,2.111,2.061,3.996,2.237c2.413,0.301,5.403,0.93,6.082,3.794
				c0.076,0.377,0.126,0.804,0.126,1.156c0,3.443-3.368,5.428-6.534,5.428c-2.714,0-6.006-1.633-6.333-4.8l-0.025-0.503l2.563-0.05
				l0.025,0.402v-0.125c0.176,1.658,2.161,2.538,3.794,2.538c1.885,0,3.946-1.081,3.946-2.916c0-0.176-0.025-0.377-0.076-0.603
				c-0.301-1.357-2.111-1.583-3.87-1.759c-2.739-0.276-5.956-0.879-6.232-4.599v0.025c-0.101-1.206,0.201-2.387,0.955-3.393
				c1.181-1.558,3.292-2.362,5.328-2.362c2.714,0,5.529,1.432,5.981,4.674L215.155,85.729z"/>
			<path d="M226.992,81.281c3.795,0,5.705,2.94,5.705,5.881c0,2.94-1.91,5.855-5.705,5.855h-3.87v5.855h-2.563V81.281H226.992z
				 M226.992,90.504c2.136,0,3.192-1.659,3.192-3.317c0-1.684-1.056-3.342-3.192-3.342h-3.87v6.66H226.992z"/>
			<path d="M237.674,96.334h8.167v2.538H235.11V81.306h10.706v2.539h-8.142v4.951h7.966v2.563h-7.966V96.334z"/>
			<path d="M250.466,83.819c1.533-1.583,3.694-2.614,6.082-2.614c4.021,0,7.188,2.513,8.193,6.484h-2.513
				c-0.93-2.639-3.091-3.971-5.68-3.971c-1.684,0-3.217,0.729-4.323,1.885c-1.105,1.156-1.809,2.714-1.809,4.524
				c0,1.759,0.704,3.317,1.809,4.473c1.106,1.156,2.639,1.885,4.323,1.885c2.664,0,4.926-1.533,5.831-4.197h2.488
				c-1.005,3.996-4.222,6.71-8.318,6.71c-2.388,0-4.549-1.005-6.082-2.613c-1.508-1.608-2.513-3.82-2.513-6.258
				C247.953,87.639,248.958,85.427,250.466,83.819z"/>
			<path d="M276,83.568h-3.267v12.993H276v2.312h-9.072v-2.312h3.267V83.568h-3.267v-2.287H276V83.568z"/>
			<path d="M288.994,94.424h-7.137l-1.709,4.448h-2.739l7.062-17.818h1.859l7.062,17.818h-2.714L288.994,94.424z M282.787,92.037
				h5.278l-2.639-6.936L282.787,92.037z"/>
			<path d="M297.741,96.41h8.268v2.463h-10.806V81.281h2.538V96.41z"/>
			<path d="M310.935,98.873V83.693h-5.328v-2.413h13.169v2.413h-5.303v15.179H310.935z"/>
			<path d="M322.773,81.281l4.8,7.74l4.8-7.74h3.016l-6.534,10.429v7.163h-2.563V91.71l-6.509-10.429H322.773z"/>
		</g>
	</g>
</g>
<g id="Layer_2" display="none">
	<rect x="294.262" y="291.318" display="inline" fill="#FFF200" width="25.275" height="7.902"/>
</g>
</svg>
